# xmcd
# 
# Track frame offsets:
#     150
#     19371
#     35945
#     57033
#     70935
#     90160
#     109991
#     126148
#     151968
#     166078
#     186148
#     207996
# 
# Disc length: 3058
# 
# Revision: 0
# Processed by: cddbd v1.5.2PL0 Copyright (c) Steve Scherf et al.
# Submitted via: fre:ac v1.0.17
# 
DISCID=9f0bf00c
DTITLE=ema lou harris - all the road running
DYEAR=2006
DGENRE=Country
TTITLE0=all the road running
TTITLE1=all the road running
TTITLE2=all the road running
TTITLE3=all the road running
TTITLE4=all the road running
TTITLE5=all the road running
TTITLE6=all the road running
TTITLE7=all the road running
TTITLE8=all the road running
TTITLE9=all the road running
TTITLE10=all the road running
TTITLE11=all the road running
EXTD=
EXTT0=
EXTT1=
EXTT2=
EXTT3=
EXTT4=
EXTT5=
EXTT6=
EXTT7=
EXTT8=
EXTT9=
EXTT10=
EXTT11=
PLAYORDER=
